<mxfile host="app.diagrams.net" modified="2024-04-04T12:09:58.368Z" agent="Mozilla/5.0 (Macintosh; Intel Mac OS X 10_15_7) AppleWebKit/537.36 (KHTML, like Gecko) Chrome/123.0.0.0 Safari/537.36" etag="em29mj4JyWi91gnlJCbL" version="24.0.7" type="google">
  <diagram name="PÃ¡gina-1" id="q_ZlYEfSZZoeo_c9bVEo">
    <mxGraphModel grid="1" page="1" gridSize="10" guides="1" tooltips="1" connect="1" arrows="1" fold="1" pageScale="1" pageWidth="827" pageHeight="1169" math="0" shadow="0">
      <root>
        <mxCell id="0" />
        <mxCell id="1" parent="0" />
        <mxCell id="dJatYidT1Oyn7Ccn3S7c-17" style="edgeStyle=orthogonalEdgeStyle;rounded=0;orthogonalLoop=1;jettySize=auto;html=1;exitX=0.5;exitY=1;exitDx=0;exitDy=0;" edge="1" parent="1" source="dJatYidT1Oyn7Ccn3S7c-1" target="dJatYidT1Oyn7Ccn3S7c-2">
          <mxGeometry relative="1" as="geometry" />
        </mxCell>
        <mxCell id="dJatYidT1Oyn7Ccn3S7c-24" style="edgeStyle=orthogonalEdgeStyle;rounded=0;orthogonalLoop=1;jettySize=auto;html=1;exitX=0.5;exitY=1;exitDx=0;exitDy=0;entryX=0.5;entryY=0;entryDx=0;entryDy=0;" edge="1" parent="1" source="dJatYidT1Oyn7Ccn3S7c-1" target="dJatYidT1Oyn7Ccn3S7c-6">
          <mxGeometry relative="1" as="geometry" />
        </mxCell>
        <mxCell id="dJatYidT1Oyn7Ccn3S7c-30" style="edgeStyle=orthogonalEdgeStyle;rounded=0;orthogonalLoop=1;jettySize=auto;html=1;exitX=0.5;exitY=1;exitDx=0;exitDy=0;entryX=0.5;entryY=0;entryDx=0;entryDy=0;" edge="1" parent="1" source="dJatYidT1Oyn7Ccn3S7c-1" target="dJatYidT1Oyn7Ccn3S7c-10">
          <mxGeometry relative="1" as="geometry" />
        </mxCell>
        <mxCell id="dJatYidT1Oyn7Ccn3S7c-1" value="Formula 1 Circuit" style="whiteSpace=wrap;html=1;" vertex="1" parent="1">
          <mxGeometry x="480" y="140" width="120" height="60" as="geometry" />
        </mxCell>
        <mxCell id="dJatYidT1Oyn7Ccn3S7c-18" style="edgeStyle=orthogonalEdgeStyle;rounded=0;orthogonalLoop=1;jettySize=auto;html=1;exitX=0.5;exitY=1;exitDx=0;exitDy=0;" edge="1" parent="1" source="dJatYidT1Oyn7Ccn3S7c-2" target="dJatYidT1Oyn7Ccn3S7c-5">
          <mxGeometry relative="1" as="geometry" />
        </mxCell>
        <mxCell id="dJatYidT1Oyn7Ccn3S7c-19" style="edgeStyle=orthogonalEdgeStyle;rounded=0;orthogonalLoop=1;jettySize=auto;html=1;exitX=0.5;exitY=1;exitDx=0;exitDy=0;" edge="1" parent="1" source="dJatYidT1Oyn7Ccn3S7c-2" target="dJatYidT1Oyn7Ccn3S7c-4">
          <mxGeometry relative="1" as="geometry" />
        </mxCell>
        <mxCell id="dJatYidT1Oyn7Ccn3S7c-20" style="edgeStyle=orthogonalEdgeStyle;rounded=0;orthogonalLoop=1;jettySize=auto;html=1;exitX=0.5;exitY=1;exitDx=0;exitDy=0;entryX=0.5;entryY=0;entryDx=0;entryDy=0;" edge="1" parent="1" source="dJatYidT1Oyn7Ccn3S7c-2" target="dJatYidT1Oyn7Ccn3S7c-3">
          <mxGeometry relative="1" as="geometry" />
        </mxCell>
        <mxCell id="dJatYidT1Oyn7Ccn3S7c-2" value="Circuit" style="rounded=0;whiteSpace=wrap;html=1;" vertex="1" parent="1">
          <mxGeometry x="-40" y="300" width="120" height="60" as="geometry" />
        </mxCell>
        <mxCell id="dJatYidT1Oyn7Ccn3S7c-3" value="Mixed" style="rounded=0;whiteSpace=wrap;html=1;" vertex="1" parent="1">
          <mxGeometry x="120" y="480" width="120" height="60" as="geometry" />
        </mxCell>
        <mxCell id="dJatYidT1Oyn7Ccn3S7c-4" value="Urban" style="rounded=0;whiteSpace=wrap;html=1;" vertex="1" parent="1">
          <mxGeometry x="-40" y="480" width="120" height="60" as="geometry" />
        </mxCell>
        <mxCell id="dJatYidT1Oyn7Ccn3S7c-5" value="Permanent" style="rounded=0;whiteSpace=wrap;html=1;" vertex="1" parent="1">
          <mxGeometry x="-200" y="480" width="120" height="60" as="geometry" />
        </mxCell>
        <mxCell id="dJatYidT1Oyn7Ccn3S7c-21" style="edgeStyle=orthogonalEdgeStyle;rounded=0;orthogonalLoop=1;jettySize=auto;html=1;exitX=0.5;exitY=1;exitDx=0;exitDy=0;entryX=0.5;entryY=0;entryDx=0;entryDy=0;" edge="1" parent="1" source="dJatYidT1Oyn7Ccn3S7c-6" target="dJatYidT1Oyn7Ccn3S7c-7">
          <mxGeometry relative="1" as="geometry" />
        </mxCell>
        <mxCell id="dJatYidT1Oyn7Ccn3S7c-22" style="edgeStyle=orthogonalEdgeStyle;rounded=0;orthogonalLoop=1;jettySize=auto;html=1;exitX=0.5;exitY=1;exitDx=0;exitDy=0;" edge="1" parent="1" source="dJatYidT1Oyn7Ccn3S7c-6" target="dJatYidT1Oyn7Ccn3S7c-9">
          <mxGeometry relative="1" as="geometry" />
        </mxCell>
        <mxCell id="dJatYidT1Oyn7Ccn3S7c-23" style="edgeStyle=orthogonalEdgeStyle;rounded=0;orthogonalLoop=1;jettySize=auto;html=1;exitX=0.5;exitY=1;exitDx=0;exitDy=0;entryX=0.5;entryY=0;entryDx=0;entryDy=0;" edge="1" parent="1" source="dJatYidT1Oyn7Ccn3S7c-6" target="dJatYidT1Oyn7Ccn3S7c-8">
          <mxGeometry relative="1" as="geometry" />
        </mxCell>
        <mxCell id="dJatYidT1Oyn7Ccn3S7c-6" value="Physical Characteristics" style="rounded=0;whiteSpace=wrap;html=1;" vertex="1" parent="1">
          <mxGeometry x="480" y="300" width="120" height="60" as="geometry" />
        </mxCell>
        <mxCell id="dJatYidT1Oyn7Ccn3S7c-7" value="High Velocity" style="rounded=0;whiteSpace=wrap;html=1;" vertex="1" parent="1">
          <mxGeometry x="320" y="480" width="120" height="60" as="geometry" />
        </mxCell>
        <mxCell id="dJatYidT1Oyn7Ccn3S7c-8" value="Hard-technical" style="rounded=0;whiteSpace=wrap;html=1;" vertex="1" parent="1">
          <mxGeometry x="480" y="480" width="120" height="60" as="geometry" />
        </mxCell>
        <mxCell id="dJatYidT1Oyn7Ccn3S7c-9" value="Significant Elevation" style="rounded=0;whiteSpace=wrap;html=1;" vertex="1" parent="1">
          <mxGeometry x="640" y="480" width="120" height="60" as="geometry" />
        </mxCell>
        <mxCell id="dJatYidT1Oyn7Ccn3S7c-25" style="edgeStyle=orthogonalEdgeStyle;rounded=0;orthogonalLoop=1;jettySize=auto;html=1;exitX=0.5;exitY=1;exitDx=0;exitDy=0;entryX=0.5;entryY=0;entryDx=0;entryDy=0;" edge="1" parent="1" source="dJatYidT1Oyn7Ccn3S7c-10" target="dJatYidT1Oyn7Ccn3S7c-11">
          <mxGeometry relative="1" as="geometry" />
        </mxCell>
        <mxCell id="dJatYidT1Oyn7Ccn3S7c-26" style="edgeStyle=orthogonalEdgeStyle;rounded=0;orthogonalLoop=1;jettySize=auto;html=1;exitX=0.5;exitY=1;exitDx=0;exitDy=0;" edge="1" parent="1" source="dJatYidT1Oyn7Ccn3S7c-10" target="dJatYidT1Oyn7Ccn3S7c-12">
          <mxGeometry relative="1" as="geometry" />
        </mxCell>
        <mxCell id="dJatYidT1Oyn7Ccn3S7c-27" style="edgeStyle=orthogonalEdgeStyle;rounded=0;orthogonalLoop=1;jettySize=auto;html=1;exitX=0.5;exitY=1;exitDx=0;exitDy=0;" edge="1" parent="1" source="dJatYidT1Oyn7Ccn3S7c-10" target="dJatYidT1Oyn7Ccn3S7c-13">
          <mxGeometry relative="1" as="geometry" />
        </mxCell>
        <mxCell id="dJatYidT1Oyn7Ccn3S7c-28" style="edgeStyle=orthogonalEdgeStyle;rounded=0;orthogonalLoop=1;jettySize=auto;html=1;exitX=0.5;exitY=1;exitDx=0;exitDy=0;entryX=0.5;entryY=0;entryDx=0;entryDy=0;" edge="1" parent="1" source="dJatYidT1Oyn7Ccn3S7c-10" target="dJatYidT1Oyn7Ccn3S7c-15">
          <mxGeometry relative="1" as="geometry" />
        </mxCell>
        <mxCell id="dJatYidT1Oyn7Ccn3S7c-29" style="edgeStyle=orthogonalEdgeStyle;rounded=0;orthogonalLoop=1;jettySize=auto;html=1;exitX=0.5;exitY=1;exitDx=0;exitDy=0;" edge="1" parent="1" source="dJatYidT1Oyn7Ccn3S7c-10" target="dJatYidT1Oyn7Ccn3S7c-14">
          <mxGeometry relative="1" as="geometry" />
        </mxCell>
        <mxCell id="dJatYidT1Oyn7Ccn3S7c-10" value="Ubication" style="rounded=0;whiteSpace=wrap;html=1;" vertex="1" parent="1">
          <mxGeometry x="1160" y="300" width="120" height="60" as="geometry" />
        </mxCell>
        <mxCell id="dJatYidT1Oyn7Ccn3S7c-11" value="European" style="rounded=0;whiteSpace=wrap;html=1;" vertex="1" parent="1">
          <mxGeometry x="840" y="480" width="120" height="60" as="geometry" />
        </mxCell>
        <mxCell id="dJatYidT1Oyn7Ccn3S7c-12" value="American" style="rounded=0;whiteSpace=wrap;html=1;" vertex="1" parent="1">
          <mxGeometry x="1000" y="480" width="120" height="60" as="geometry" />
        </mxCell>
        <mxCell id="dJatYidT1Oyn7Ccn3S7c-13" value="Asian" style="rounded=0;whiteSpace=wrap;html=1;" vertex="1" parent="1">
          <mxGeometry x="1480" y="480" width="120" height="60" as="geometry" />
        </mxCell>
        <mxCell id="dJatYidT1Oyn7Ccn3S7c-14" value="Oceanic" style="rounded=0;whiteSpace=wrap;html=1;" vertex="1" parent="1">
          <mxGeometry x="1320" y="480" width="120" height="60" as="geometry" />
        </mxCell>
        <mxCell id="dJatYidT1Oyn7Ccn3S7c-15" value="African" style="rounded=0;whiteSpace=wrap;html=1;" vertex="1" parent="1">
          <mxGeometry x="1160" y="480" width="120" height="60" as="geometry" />
        </mxCell>
      </root>
    </mxGraphModel>
  </diagram>
</mxfile>
